<svg width="24" height="26" viewBox="0 0 24 26" fill="none" xmlns="http://www.w3.org/2000/svg">
<path d="M11.9998 24.0548C10.2722 23.8343 8.72838 23.3932 7.36833 22.7315C6.00828 22.0699 4.85518 21.2061 3.90903 20.1401C2.96288 19.0741 2.24132 17.8383 1.74435 16.4327C1.24738 15.0271 0.999266 13.4692 1 11.7593C3.02169 11.9614 4.73094 12.329 6.12775 12.862C7.52455 13.395 8.65964 14.1485 9.53301 15.1226C10.4064 16.0967 11.0357 17.3145 11.4209 18.776C11.8061 20.2375 11.9991 21.9971 11.9998 24.0548ZM11.9998 14.7642C11.5771 14.121 11.003 13.4869 10.2774 12.862C9.55176 12.2371 8.71073 11.6674 7.75429 11.1528C7.86456 10.3808 8.04835 9.58135 8.30566 8.75429C8.56297 7.92724 8.87541 7.11415 9.24299 6.31503C9.61057 5.51591 10.0289 4.7484 10.4979 4.0125C10.9669 3.27661 11.4676 2.60577 11.9998 2C12.5328 2.60651 13.0338 3.27734 13.5029 4.0125C13.9719 4.74766 14.3898 5.51517 14.7567 6.31503C15.1235 7.11488 15.436 7.92797 15.694 8.75429C15.9521 9.58061 16.1359 10.3801 16.2454 11.1528C15.2897 11.649 14.449 12.2095 13.7234 12.8344C12.9978 13.4593 12.4233 14.1026 11.9998 14.7642ZM14.2053 23.6137C14.1686 22.3272 14.0723 21.137 13.9164 20.0431C13.7606 18.9491 13.5168 17.9155 13.1853 16.9421C14.0491 15.4534 15.2393 14.2404 16.756 13.3031C18.2726 12.3658 20.3538 11.8512 22.9997 11.7593C23.0181 14.6631 22.2414 17.1675 20.6696 19.2722C19.0978 21.377 16.9431 22.8242 14.2053 23.6137Z" stroke="black" stroke-width="2"/>
</svg>
